#!OML:ASF H:\Dans Jumps\Project 1\Capture day 1\Session 1\subject.ASF
:FULLY-SPECIFIED
:DEGREES
73
root 0.528775 17.5487 -13.9135 5.33526 0.366665 -1.77968
lowerback -4.45596 -0.719363 0.851485
upperback 1.47798 -1.08398 1.87009
thorax 4.04553 -0.542018 1.36692
lowerneck -13.0099 -0.233358 -2.39242
upperneck 3.37077 0.0201389 0.81324
head 3.41077 0.00861869 0.697411
rclavicle 1.04362e-014 2.78299e-015
rhumerus -25.2776 -20.1944 -79.6811
rradius 24.902
rwrist 33.3381
rhand -16.8436 -27.2729
rfingers 7.12502
rthumb 9.38629 -57.044
lclavicle 1.04362e-014 2.78299e-015
lhumerus -22.9937 -2.42238 90.2148
lradius 19.4114
lwrist 2.97284
lhand -24.3378 -2.83936
lfingers 7.12502
lthumb 2.1511 27.1295
rfemur -10.7312 -3.1875 19.9776
rtibia 19.0566
rfoot -12.9739 -2.14113
rtoes 3.85067
lfemur -9.31766 8.82018 -17.5251
ltibia 15.964
lfoot -10.8702 2.61103
ltoes -6.77833
74
root 0.531034 17.5481 -13.9148 5.3233 0.356854 -1.78713
lowerback -4.442 -0.71882 0.863505
upperback 1.48539 -1.08394 1.87232
thorax 4.04514 -0.541737 1.36262
lowerneck -12.9957 -0.229846 -2.38315
upperneck 3.33596 0.0236772 0.802359
head 3.39562 0.0102227 0.692137
rclavicle 3.23025e-015 1.35174e-014
rhumerus -25.2846 -20.2127 -79.6724
rradius 24.8883
rwrist 33.3611
rhand -16.8402 -27.2702
rfingers 7.12502
rthumb 9.38958 -57.0411
lclavicle 3.23025e-015 1.35174e-014
lhumerus -22.991 -2.40802 90.2078
lradius 19.4202
lwrist 2.96153
lhand -24.3376 -2.84786
lfingers 7.12502
lthumb 2.15127 27.121
rfemur -10.7264 -3.178 19.9774
rtibia 19.0592
rfoot -12.9683 -2.14522
rtoes 3.82195
lfemur -9.32603 8.82232 -17.5247
ltibia 15.9982
lfoot -10.879 2.61499
ltoes -6.79029
75
root 0.5333 17.5476 -13.916 5.31132 0.348318 -1.79555
lowerback -4.42874 -0.718823 0.875858
upperback 1.49234 -1.08467 1.87498
thorax 4.04468 -0.541833 1.3585
lowerneck -12.9781 -0.22594 -2.37619
upperneck 3.3012 0.0276522 0.796891
head 3.37987 0.01225 0.689095
rclavicle -2.88238e-015 5.96354e-015
rhumerus -25.2969 -20.231 -79.6611
rradius 24.8754
rwrist 33.3905
rhand -16.847 -27.2627
rfingers 7.12502
rthumb 9.383 -57.0339
lclavicle -2.88238e-015 5.96354e-015
lhumerus -22.989 -2.40918 90.2056
lradius 19.425
lwrist 2.96711
lhand -24.3446 -2.86205
lfingers 7.12502
lthumb 2.14457 27.1069
rfemur -10.7195 -3.17369 19.9781
rtibia 19.0595
rfoot -12.9632 -2.14354
rtoes 3.8044
lfemur -9.33387 8.82433 -17.5232
ltibia 16.0322
lfoot -10.8886 2.61865
ltoes -6.80197
76
root 0.535579 17.5471 -13.9171 5.29793 0.340943 -1.81198
lowerback -4.41467 -0.719121 0.895852
upperback 1.49955 -1.08631 1.87959
thorax 4.04397 -0.542215 1.35206
lowerneck -12.9587 -0.221521 -2.36584
upperneck 3.26456 0.0318181 0.789915
head 3.36311 0.0143664 0.68494
rclavicle 9.59136e-015 1.27222e-014
rhumerus -25.3112 -20.2548 -79.6466
rradius 24.8604
rwrist 33.4386
rhand -16.8642 -27.2638
rfingers 7.12502
rthumb 9.36637 -57.0357
lclavicle 9.59136e-015 1.27222e-014
lhumerus -22.9892 -2.45033 90.2115
lradius 19.4348
lwrist 3.01139
lhand -24.3628 -2.87415
lfingers 7.12502
lthumb 2.12701 27.095
rfemur -10.7099 -3.17304 19.988
rtibia 19.0576
rfoot -12.9573 -2.13896
rtoes 3.78564
lfemur -9.33973 8.83381 -17.5127
ltibia 16.0652
lfoot -10.8999 2.61631
ltoes -6.81997
